<svg id="Layer_1" width="18" heigth="18" data-name="Layer 1" fill="#fff" xmlns="http://www.w3.org/2000/svg" viewBox="0 0 94 94"><path d="M47 73a7.31 7.31 0 0 1-4.46-1.52l-36.25-28a.77.77 0 0 1-.13-1.06.76.76 0 0 1 1-.13l36.25 28a5.79 5.79 0 0 0 7.08 0l36.25-28a.76.76 0 0 1 1 .13.77.77 0 0 1-.13 1.06l-36.25 28A7.31 7.31 0 0 1 47 73z"/><path d="M85 91.12a.73.73 0 0 1-.44-.15L54.14 68.72a.75.75 0 0 1-.17-1 .74.74 0 0 1 1.03-.21l30.46 22.25a.76.76 0 0 1 .16 1 .77.77 0 0 1-.62.36z"/><path d="M9 91.11a.75.75 0 0 1-.44-1.36l30.24-22.4a.75.75 0 0 1 1 .16.74.74 0 0 1-.16 1L9.42 91a.76.76 0 0 1-.42.11z"/><path d="M80.69 92.75H13.31A7.32 7.32 0 0 1 6 85.45V42.88a.75.75 0 0 1 .3-.6l14-10.48a.76.76 0 0 1 1 .2.75.75 0 0 1-.14 1L7.5 43.26v42.19a5.81 5.81 0 0 0 5.81 5.8h67.38a5.81 5.81 0 0 0 5.81-5.8V43.26l-15-11.16a.75.75 0 1 1 .89-1.2l15.3 11.38a.74.74 0 0 1 .31.6v42.57a7.32 7.32 0 0 1-7.31 7.3z"/><path d="M29.28 42.46a.74.74 0 0 1-.54-.23c-.31-.32-7.59-8-6-18.17a.77.77 0 0 1 .51-.59l11.35-3.74a.75.75 0 0 1 1 .67c0 .11.71 11.86 5.58 17.06a.73.73 0 0 1 .18.7.75.75 0 0 1-.49.52l-11.36 3.75a.85.85 0 0 1-.23.03zm-5.11-17.71c-1.05 8 4 14.56 5.34 16.1l9.82-3.24c-3.83-4.93-4.9-13.31-5.16-16.16z"/><path d="M24.56 40.24a2.87 2.87 0 0 1-2.71-2l-2.28-6.92a2.84 2.84 0 0 1 1.81-3.6l1.69-.56a.75.75 0 0 1 .47 1.43l-1.69.55a1.35 1.35 0 0 0-.85 1.75l2.28 6.92a1.34 1.34 0 0 0 1.7.86l1.82-.6a.75.75 0 1 1 .47 1.43l-1.82.6a3 3 0 0 1-.89.14z"/><path d="M68.58 40.4c-1.82 0-3.89-1.51-6.08-4.45a46.84 46.84 0 0 1-6.29-12.84A46.46 46.46 0 0 1 53.63 9c0-4.33 1.09-7 3.11-7.64s4.46.82 7 4.29a46.56 46.56 0 0 1 6.3 12.84 46.83 46.83 0 0 1 2.63 14.11c0 4.33-1.09 7-3.12 7.64a2.9 2.9 0 0 1-.97.16zM57.7 2.75a1.62 1.62 0 0 0-.49.08c-1.29.42-2.07 2.75-2.08 6.22a45.23 45.23 0 0 0 2.5 13.59 45.06 45.06 0 0 0 6.08 12.42c2.07 2.78 4.08 4.19 5.37 3.76s2.08-2.75 2.09-6.22A45 45 0 0 0 68.66 19a45.13 45.13 0 0 0-6.07-12.41C60.76 4.14 59 2.75 57.7 2.75z"/><path d="M34.84 21.19a.76.76 0 0 1-.67-.42.75.75 0 0 1 .34-1 46.76 46.76 0 0 0 11.38-7.71 44.21 44.21 0 0 0 3.6-4 28.73 28.73 0 0 1 6.27-6.13 5.17 5.17 0 0 1 .93-.51.75.75 0 0 1 1 .4.76.76 0 0 1-.4 1 3.55 3.55 0 0 0-.7.38A27.23 27.23 0 0 0 50.65 9a45.44 45.44 0 0 1-3.73 4.13 48.08 48.08 0 0 1-11.75 8 .76.76 0 0 1-.33.06z"/><path d="M67.44 40.44a32.34 32.34 0 0 1-7.68-1.24 46 46 0 0 0-5.27-1.07 46.68 46.68 0 0 0-13.73.58.75.75 0 0 1-.27-1.48 48.63 48.63 0 0 1 14.17-.59 44.74 44.74 0 0 1 5.46 1.11 27.1 27.1 0 0 0 8.23 1.16 3.84 3.84 0 0 0 .79-.11.75.75 0 1 1 .36 1.46 6.25 6.25 0 0 1-1 .15z"/><path d="M38.7 55.21a.73.73 0 0 1-.56-.25.72.72 0 0 1-.18-.61c.43-3-3.79-10.78-5.45-13.53a.75.75 0 1 1 1.28-.77c.6 1 5.48 9.18 5.69 13.59a15.45 15.45 0 0 0 5.77-1.9c-1.47-1.85-5.45-7.22-7-13a.75.75 0 0 1 1.45-.39c1.82 6.7 7.21 13.05 7.27 13.11a.74.74 0 0 1 .17.59.78.78 0 0 1-.32.52 16.5 16.5 0 0 1-8.08 2.66z"/><path d="M58.86 28.67a.72.72 0 0 1-.61-.32.75.75 0 0 1 .17-1l3.72-2.63a3.54 3.54 0 0 0-2.28-6.42l-4.34.29a.76.76 0 0 1-.8-.7.74.74 0 0 1 .7-.8l4.34-.29A5 5 0 0 1 63 25.9l-3.71 2.63a.76.76 0 0 1-.43.14z"/><path d="M73.26 19.49A.75.75 0 0 1 73 18l6.38-2.19a.75.75 0 0 1 .49 1.42l-6.38 2.19a.77.77 0 0 1-.23.07z"/><path d="M71.55 14.83a.75.75 0 0 1-.55-1.24l4.48-5.16a.75.75 0 1 1 1.13 1l-4.47 5.16a.76.76 0 0 1-.59.24z"/><path d="M81.08 25H81l-6.57-1a.74.74 0 0 1-.64-.84.75.75 0 0 1 .85-.64l6.54.94a.75.75 0 0 1 .64.85.74.74 0 0 1-.74.69z"/></svg>